<svg width="164" height="164" viewBox="0 0 164 164" fill="none" xmlns="http://www.w3.org/2000/svg">
<path d="M106.6 36.9C106.6 39.1646 104.765 41 102.5 41C100.235 41 98.4 39.1646 98.4 36.9C98.4 34.6354 100.235 32.8 102.5 32.8C104.765 32.8 106.6 34.6354 106.6 36.9Z" fill="#FF7A00" fill-opacity="0.33"/>
<path d="M106.6 127.1C106.6 129.365 104.765 131.2 102.5 131.2C100.235 131.2 98.4 129.365 98.4 127.1C98.4 124.835 100.235 123 102.5 123C104.765 123 106.6 124.835 106.6 127.1Z" fill="#FF7A00" fill-opacity="0.33"/>
<path d="M65.6 36.9C65.6 39.1646 63.7646 41 61.5 41C59.2355 41 57.4 39.1646 57.4 36.9C57.4 34.6354 59.2355 32.8 61.5 32.8C63.7646 32.8 65.6 34.6354 65.6 36.9Z" fill="#FF7A00" fill-opacity="0.33"/>
<path d="M114.8 82C114.8 88.7933 109.293 94.3 102.5 94.3C95.7067 94.3 90.2 88.7933 90.2 82C90.2 75.2067 95.7067 69.7 102.5 69.7C109.293 69.7 114.8 75.2067 114.8 82Z" fill="#FF7A00" fill-opacity="0.33"/>
<path d="M73.8 82C73.8 88.7933 68.2933 94.3 61.5 94.3C54.7067 94.3 49.2 88.7933 49.2 82C49.2 75.2067 54.7067 69.7 61.5 69.7C68.2933 69.7 73.8 75.2067 73.8 82Z" fill="#FF7A00" fill-opacity="0.33"/>
<path d="M73.8 127.1C73.8 133.893 68.2933 139.4 61.5 139.4C54.7067 139.4 49.2 133.893 49.2 127.1C49.2 120.307 54.7067 114.8 61.5 114.8C68.2933 114.8 73.8 120.307 73.8 127.1Z" fill="#FF7A00" fill-opacity="0.33"/>
</svg>
