<svg width="185" height="185" viewBox="0 0 185 185" fill="none" xmlns="http://www.w3.org/2000/svg">
<path d="M156.017 33.9398C160.934 30.8666 166.507 27.3852 166.507 20.3503C166.507 19.3277 165.679 18.5003 164.657 18.5003C163.635 18.5003 162.807 19.3277 162.807 20.3503C162.807 25.3348 158.752 27.8678 154.056 30.8017C149.14 33.873 143.567 37.3526 143.567 44.3877C143.567 51.4228 149.139 54.906 154.056 57.9771C158.752 60.9111 162.807 63.4459 162.807 68.4321C162.807 73.4183 158.752 75.9531 154.058 78.8889C149.14 81.9621 143.567 85.4452 143.567 92.484C143.567 99.5191 149.139 103.002 154.056 106.073C158.752 109.007 162.807 111.542 162.807 116.528C162.807 121.518 158.752 124.055 154.056 126.991C149.14 130.064 143.567 133.549 143.567 140.589C143.567 147.63 149.139 151.115 154.056 154.188C158.752 157.124 162.807 159.66 162.807 164.65C162.807 165.673 163.635 166.5 164.657 166.5C165.679 166.5 166.507 165.673 166.507 164.65C166.507 157.61 160.935 154.125 156.018 151.051C151.322 148.116 147.267 145.579 147.267 140.589C147.267 135.599 151.322 133.063 156.018 130.127C160.935 127.054 166.507 123.569 166.507 116.528C166.507 109.491 160.934 106.008 156.017 102.937C151.322 100.003 147.267 97.4683 147.267 92.4838C147.267 87.4958 151.322 84.9609 156.018 82.0251C160.935 78.952 166.507 75.4689 166.507 68.432C166.507 61.395 160.934 57.9119 156.017 54.8406C151.322 51.9067 147.267 49.3719 147.267 44.3874C147.268 39.4047 151.322 36.8717 156.017 33.9395V33.9398Z" fill="#FF3FE0" fill-opacity="0.3"/>
<path d="M122.784 126.99C117.868 130.063 112.295 133.548 112.295 140.589C112.295 147.629 117.867 151.114 122.784 154.187C127.48 157.123 131.535 159.66 131.535 164.65C131.535 165.672 132.363 166.5 133.385 166.5C134.407 166.5 135.235 165.672 135.235 164.65C135.235 157.609 129.663 154.124 124.746 151.051C120.05 148.115 115.995 145.579 115.995 140.589C115.995 135.599 120.05 133.062 124.746 130.127C129.662 127.053 135.235 123.568 135.235 116.528C135.235 109.491 129.662 106.008 124.745 102.937C120.05 100.003 115.995 97.4679 115.995 92.4834C115.995 87.4953 120.05 84.9605 124.747 82.0247C129.662 78.9515 135.235 75.4684 135.235 68.4315C135.235 61.3946 129.662 57.9115 124.745 54.8402C120.05 51.9062 115.995 49.3714 115.995 44.3869C115.995 39.4042 120.05 36.8713 124.745 33.939C129.661 30.8659 135.235 27.3845 135.235 20.3495C135.235 19.327 134.407 18.4995 133.385 18.4995C132.363 18.4995 131.535 19.327 131.535 20.3495C131.535 25.3341 127.481 27.867 122.784 30.801C117.868 33.8723 112.295 37.3518 112.295 44.3869C112.295 51.422 117.867 54.9052 122.784 57.9764C127.48 60.9103 131.535 63.4451 131.535 68.4313C131.535 73.4176 127.481 75.9524 122.786 78.8882C117.868 81.9613 112.295 85.4444 112.295 92.4832C112.295 99.5183 117.867 103.002 122.784 106.073C127.48 109.007 131.535 111.541 131.535 116.528C131.535 121.518 127.48 124.054 122.784 126.99V126.99Z" fill="#FF3FE0" fill-opacity="0.3"/>
<path d="M91.5194 126.99C86.6029 130.063 81.0301 133.548 81.0301 140.589C81.0301 147.629 86.6025 151.114 91.5194 154.187C96.2161 157.123 100.271 159.66 100.271 164.65C100.271 165.672 101.099 166.5 102.121 166.5C103.143 166.5 103.971 165.672 103.971 164.65C103.971 157.609 98.3985 154.124 93.4815 151.051C88.7855 148.115 84.7301 145.579 84.7301 140.589C84.7301 135.599 88.7848 133.062 93.4815 130.127C98.3981 127.053 103.971 123.568 103.971 116.528C103.971 109.491 98.3974 106.008 93.4803 102.937C88.7848 100.003 84.7295 97.4679 84.7295 92.4834C84.7295 87.4953 88.7854 84.9605 93.4809 82.0247C98.3974 78.9515 103.97 75.4684 103.97 68.4315C103.97 61.3946 98.3968 57.9115 93.4797 54.8402C88.7842 51.9062 84.7289 49.3714 84.7289 44.3869C84.7289 39.4042 88.7836 36.8713 93.4784 33.939C98.3973 30.8659 103.971 27.3845 103.971 20.3495C103.971 19.327 103.143 18.4995 102.121 18.4995C101.099 18.4995 100.271 19.327 100.271 20.3495C100.271 25.3341 96.2161 27.867 91.5194 30.801C86.6029 33.8723 81.0301 37.3518 81.0301 44.3869C81.0301 51.4238 86.6025 54.9052 91.5194 57.9764C96.2155 60.9103 100.271 63.4451 100.271 68.4313C100.271 73.4176 96.2161 75.9524 91.5201 78.8882C86.6035 81.9613 81.0295 85.4444 81.0295 92.4832C81.0295 99.5201 86.6018 103.002 91.5188 106.073C96.2149 109.007 100.27 111.541 100.27 116.528C100.271 121.518 96.2161 124.054 91.5194 126.99V126.99Z" fill="#FF3FE0" fill-opacity="0.3"/>
<path d="M60.2545 126.99C55.338 130.063 49.7651 133.548 49.7651 140.589C49.7651 147.629 55.3375 151.114 60.2545 154.187C64.9506 157.123 69.0053 159.66 69.0053 164.65C69.0053 165.672 69.8333 166.5 70.8553 166.5C71.8772 166.5 72.7053 165.672 72.7053 164.65C72.7053 157.609 67.1329 154.124 62.2159 151.051C57.5205 148.115 53.4651 145.579 53.4651 140.589C53.4651 135.599 57.5199 133.062 62.2159 130.127C67.1325 127.053 72.7053 123.568 72.7053 116.528C72.7053 109.491 67.1319 106.008 62.2147 102.937C57.5199 100.003 53.4651 97.4679 53.4651 92.4834C53.4651 87.4953 57.5199 84.9605 62.2166 82.0247C67.1325 78.9515 72.7053 75.4684 72.7053 68.4315C72.7053 61.3946 67.1319 57.9115 62.2147 54.8402C57.5199 51.9062 53.4651 49.3714 53.4651 44.3869C53.4651 39.4042 57.5199 36.8713 62.2147 33.939C67.1319 30.8659 72.7053 27.3845 72.7053 20.3495C72.7053 19.327 71.8772 18.4995 70.8553 18.4995C69.8333 18.4995 69.0053 19.327 69.0053 20.3495C69.0053 25.3341 64.9506 27.867 60.2545 30.801C55.338 33.8723 49.7651 37.3518 49.7651 44.3869C49.7651 51.422 55.3375 54.9052 60.2545 57.9764C64.9499 60.9103 69.0053 63.4451 69.0053 68.4313C69.0053 73.4176 64.9506 75.9524 60.2557 78.8882C55.3381 81.9613 49.7651 85.4444 49.7651 92.4832C49.7651 99.5183 55.3375 103.002 60.2545 106.073C64.9499 109.007 69.0053 111.541 69.0053 116.528C69.0053 121.518 64.9506 124.054 60.2545 126.99V126.99Z" fill="#FF3FE0" fill-opacity="0.3"/>
<path d="M28.9895 126.99C24.0723 130.063 18.5001 133.548 18.5001 140.589C18.5001 147.629 24.0725 151.114 28.9895 154.187C33.6849 157.123 37.7397 159.66 37.7397 164.65C37.7397 165.672 38.5677 166.5 39.5897 166.5C40.6116 166.5 41.4397 165.672 41.4397 164.65C41.4397 157.609 35.8673 154.124 30.9503 151.051C26.2549 148.115 22.2001 145.579 22.2001 140.589C22.2001 135.599 26.2549 133.062 30.9509 130.127C35.8675 127.053 41.4403 123.568 41.4403 116.528C41.4403 109.491 35.8668 106.008 30.9497 102.937C26.2549 100.003 22.2001 97.4679 22.2001 92.4834C22.2001 87.4953 26.2549 84.9605 30.9515 82.0247C35.8675 78.9515 41.4403 75.4684 41.4403 68.4315C41.4403 61.3946 35.8668 57.9115 30.9497 54.8402C26.2549 51.9062 22.2001 49.3714 22.2001 44.3869C22.2001 39.4042 26.2549 36.8713 30.9497 33.939C35.8662 30.8659 41.4397 27.3845 41.4397 20.3495C41.4397 19.327 40.6116 18.4995 39.5897 18.4995C38.5677 18.4995 37.7397 19.327 37.7397 20.3495C37.7397 25.3341 33.6849 27.867 28.9889 30.801C24.0723 33.8723 18.5001 37.3518 18.5001 44.3869C18.5001 51.422 24.0725 54.9052 28.9895 57.9764C33.6849 60.9103 37.7403 63.4451 37.7403 68.4313C37.7403 73.4176 33.6855 75.9524 28.9907 78.8882C24.0725 81.9613 18.5001 85.4444 18.5001 92.4832C18.5001 99.5183 24.0725 103.002 28.9895 106.073C33.6849 109.007 37.7403 111.541 37.7403 116.528C37.7397 121.518 33.6849 124.054 28.9895 126.99V126.99Z" fill="#FF3FE0" fill-opacity="0.3"/>
</svg>
