<svg width="123" height="123" viewBox="0 0 123 123" fill="none" xmlns="http://www.w3.org/2000/svg">
<path d="M55.35 27.675C55.35 32.77 51.22 36.9 46.125 36.9C41.0301 36.9 36.9 32.77 36.9 27.675C36.9 22.58 41.0301 18.45 46.125 18.45C51.22 18.45 55.35 22.58 55.35 27.675Z" fill="#FF6B00" fill-opacity="0.19"/>
<path d="M55.35 61.5C55.35 66.595 51.22 70.725 46.125 70.725C41.0301 70.725 36.9 66.595 36.9 61.5C36.9 56.4051 41.0301 52.275 46.125 52.275C51.22 52.275 55.35 56.4051 55.35 61.5Z" fill="#FF6B00" fill-opacity="0.19"/>
<path d="M55.35 95.325C55.35 100.42 51.22 104.55 46.125 104.55C41.0301 104.55 36.9 100.42 36.9 95.325C36.9 90.23 41.0301 86.1 46.125 86.1C51.22 86.1 55.35 90.23 55.35 95.325Z" fill="#FF6B00" fill-opacity="0.19"/>
<path d="M86.1 27.675C86.1 32.77 81.97 36.9 76.875 36.9C71.7801 36.9 67.65 32.77 67.65 27.675C67.65 22.58 71.7801 18.45 76.875 18.45C81.97 18.45 86.1 22.58 86.1 27.675Z" fill="#FF6B00" fill-opacity="0.19"/>
<path d="M24.6 95.325C24.6 100.42 20.47 104.55 15.375 104.55C10.2801 104.55 6.15002 100.42 6.15002 95.325C6.15002 90.23 10.2801 86.1 15.375 86.1C20.47 86.1 24.6 90.23 24.6 95.325Z" fill="#FF6B00" fill-opacity="0.19"/>
<path d="M18.45 27.675C18.45 29.3734 17.0735 30.75 15.375 30.75C13.6766 30.75 12.3 29.3734 12.3 27.675C12.3 25.9766 13.6766 24.6 15.375 24.6C17.0735 24.6 18.45 25.9766 18.45 27.675Z" fill="#FF6B00" fill-opacity="0.19"/>
<path d="M18.45 61.5C18.45 63.1984 17.0735 64.575 15.375 64.575C13.6766 64.575 12.3 63.1984 12.3 61.5C12.3 59.8016 13.6766 58.425 15.375 58.425C17.0735 58.425 18.45 59.8016 18.45 61.5Z" fill="#FF6B00" fill-opacity="0.19"/>
<path d="M79.95 95.325C79.95 97.0234 78.5735 98.4 76.875 98.4C75.1766 98.4 73.8 97.0234 73.8 95.325C73.8 93.6266 75.1766 92.25 76.875 92.25C78.5735 92.25 79.95 93.6266 79.95 95.325Z" fill="#FF6B00" fill-opacity="0.19"/>
<path d="M110.7 61.5C110.7 63.1984 109.323 64.575 107.625 64.575C105.927 64.575 104.55 63.1984 104.55 61.5C104.55 59.8016 105.927 58.425 107.625 58.425C109.323 58.425 110.7 59.8016 110.7 61.5Z" fill="#FF6B00" fill-opacity="0.19"/>
<path d="M110.7 95.325C110.7 97.0234 109.323 98.4 107.625 98.4C105.927 98.4 104.55 97.0234 104.55 95.325C104.55 93.6266 105.927 92.25 107.625 92.25C109.323 92.25 110.7 93.6266 110.7 95.325Z" fill="#FF6B00" fill-opacity="0.19"/>
<path d="M86.1 61.5C86.1 66.595 81.97 70.725 76.875 70.725C71.7801 70.725 67.65 66.595 67.65 61.5C67.65 56.4051 71.7801 52.275 76.875 52.275C81.97 52.275 86.1 56.4051 86.1 61.5Z" fill="#FF6B00" fill-opacity="0.19"/>
<path d="M116.85 27.675C116.85 32.77 112.72 36.9 107.625 36.9C102.53 36.9 98.4 32.77 98.4 27.675C98.4 22.58 102.53 18.45 107.625 18.45C112.72 18.45 116.85 22.58 116.85 27.675Z" fill="#FF6B00" fill-opacity="0.19"/>
</svg>
