<svg width="185" height="185" viewBox="0 0 185 185" fill="none" xmlns="http://www.w3.org/2000/svg">
<path d="M151.06 156.017C154.133 160.934 157.615 166.507 164.65 166.507C165.672 166.507 166.5 165.679 166.5 164.657C166.5 163.635 165.672 162.807 164.65 162.807C159.665 162.807 157.132 158.752 154.198 154.056C151.127 149.14 147.647 143.567 140.612 143.567C133.577 143.567 130.094 149.139 127.023 154.056C124.089 158.752 121.554 162.807 116.568 162.807C111.582 162.807 109.047 158.752 106.111 154.058C103.038 149.14 99.5548 143.567 92.516 143.567C85.4809 143.567 81.9977 149.139 78.9266 154.056C75.9926 158.752 73.4578 162.807 68.4716 162.807C63.4817 162.807 60.9452 158.752 58.0094 154.056C54.9362 149.14 51.4513 143.567 44.4108 143.567C37.3703 143.567 33.8854 149.139 30.8122 154.056C27.8764 158.752 25.3399 162.807 20.35 162.807C19.3275 162.807 18.5 163.635 18.5 164.657C18.5 165.679 19.3275 166.507 20.35 166.507C27.3905 166.507 30.8754 160.935 33.9486 156.018C36.8844 151.322 39.4209 147.267 44.4108 147.267C49.4007 147.267 51.9372 151.322 54.873 156.018C57.9462 160.935 61.4311 166.507 68.4716 166.507C75.5085 166.507 78.9916 160.934 82.0629 156.017C84.9969 151.322 87.5317 147.267 92.5162 147.267C97.5042 147.267 100.039 151.322 102.975 156.019C106.048 160.935 109.531 166.507 116.568 166.507C123.605 166.507 127.088 160.934 130.159 156.017C133.093 151.322 135.628 147.267 140.613 147.267C145.595 147.268 148.128 151.322 151.061 156.017L151.06 156.017Z" fill="#3FC5FF" fill-opacity="0.3"/>
<path d="M58.0098 122.784C54.9367 117.868 51.4518 112.295 44.4113 112.295C37.3708 112.295 33.8858 117.867 30.8127 122.784C27.8769 127.48 25.3404 131.535 20.3505 131.535C19.3279 131.535 18.5005 132.363 18.5005 133.385C18.5005 134.407 19.3279 135.235 20.3505 135.235C27.391 135.235 30.8759 129.663 33.9491 124.746C36.8849 120.051 39.4214 115.995 44.4113 115.995C49.4012 115.995 51.9377 120.05 54.8735 124.746C57.9466 129.662 61.4316 135.235 68.4721 135.235C75.509 135.235 78.9921 129.662 82.0634 124.745C84.9973 120.05 87.5322 115.995 92.5167 115.995C97.5047 115.995 100.04 120.05 102.975 124.747C106.048 129.662 109.532 135.235 116.569 135.235C123.605 135.235 127.089 129.662 130.16 124.745C133.094 120.05 135.629 115.995 140.613 115.995C145.596 115.995 148.129 120.05 151.061 124.745C154.134 129.661 157.616 135.235 164.65 135.235C165.673 135.235 166.5 134.407 166.5 133.385C166.5 132.363 165.673 131.535 164.65 131.535C159.666 131.535 157.133 127.481 154.199 122.784C151.128 117.868 147.648 112.295 140.613 112.295C133.578 112.295 130.095 117.868 127.024 122.784C124.09 127.48 121.555 131.535 116.569 131.535C111.582 131.535 109.048 127.481 106.112 122.786C103.039 117.868 99.5556 112.295 92.5168 112.295C85.4817 112.295 81.9985 117.868 78.9273 122.784C75.9934 127.48 73.4586 131.535 68.4724 131.535C63.4825 131.535 60.946 127.48 58.0102 122.784L58.0098 122.784Z" fill="#3FC5FF" fill-opacity="0.3"/>
<path d="M58.0098 91.5195C54.9367 86.603 51.4518 81.0301 44.4113 81.0301C37.3708 81.0301 33.8858 86.6025 30.8127 91.5195C27.8769 96.2162 25.3404 100.271 20.3505 100.271C19.3279 100.271 18.5005 101.099 18.5005 102.121C18.5005 103.143 19.3279 103.971 20.3505 103.971C27.391 103.971 30.8759 98.3986 33.9491 93.4816C36.8849 88.7855 39.4214 84.7301 44.4113 84.7301C49.4012 84.7301 51.9377 88.7849 54.8735 93.4816C57.9466 98.3981 61.4316 103.971 68.4721 103.971C75.509 103.971 78.9921 98.3975 82.0634 93.4803C84.9973 88.7849 87.5322 84.7295 92.5167 84.7295C97.5047 84.7295 100.04 88.7855 102.975 93.4809C106.048 98.3975 109.532 103.97 116.569 103.97C123.605 103.97 127.089 98.3969 130.16 93.4797C133.094 88.7843 135.629 84.7289 140.613 84.7289C145.596 84.7289 148.129 88.7836 151.061 93.4785C154.134 98.3973 157.616 103.971 164.65 103.971C165.673 103.971 166.5 103.143 166.5 102.121C166.5 101.099 165.673 100.271 164.65 100.271C159.666 100.271 157.133 96.2162 154.199 91.5195C151.128 86.603 147.648 81.0301 140.613 81.0301C133.576 81.0301 130.095 86.6025 127.024 91.5195C124.09 96.2156 121.555 100.271 116.569 100.271C111.582 100.271 109.048 96.2162 106.112 91.5201C103.039 86.6036 99.5556 81.0295 92.5168 81.0295C85.4799 81.0295 81.9985 86.6019 78.9273 91.5189C75.9934 96.2149 73.4586 100.27 68.4724 100.27C63.4825 100.271 60.946 96.2162 58.0102 91.5195L58.0098 91.5195Z" fill="#3FC5FF" fill-opacity="0.3"/>
<path d="M58.0098 60.2545C54.9367 55.338 51.4518 49.7651 44.4113 49.7651C37.3708 49.7651 33.8858 55.3375 30.8127 60.2545C27.8769 64.9506 25.3404 69.0053 20.3505 69.0053C19.3279 69.0053 18.5005 69.8333 18.5005 70.8553C18.5005 71.8773 19.3279 72.7053 20.3505 72.7053C27.391 72.7053 30.8759 67.1329 33.9491 62.216C36.8849 57.5205 39.4214 53.4651 44.4113 53.4651C49.4012 53.4651 51.9377 57.5199 54.8735 62.216C57.9466 67.1325 61.4316 72.7053 68.4721 72.7053C75.509 72.7053 78.9921 67.1319 82.0634 62.2147C84.9973 57.5199 87.5322 53.4651 92.5167 53.4651C97.5047 53.4651 100.04 57.5199 102.975 62.2166C106.048 67.1325 109.532 72.7053 116.569 72.7053C123.605 72.7053 127.089 67.1319 130.16 62.2147C133.094 57.5199 135.629 53.4652 140.613 53.4652C145.596 53.4652 148.129 57.5199 151.061 62.2147C154.134 67.1319 157.616 72.7053 164.65 72.7053C165.673 72.7053 166.5 71.8773 166.5 70.8553C166.5 69.8334 165.673 69.0053 164.65 69.0053C159.666 69.0053 157.133 64.9506 154.199 60.2545C151.128 55.338 147.648 49.7652 140.613 49.7652C133.578 49.7652 130.095 55.3375 127.024 60.2545C124.09 64.95 121.555 69.0053 116.569 69.0053C111.582 69.0053 109.048 64.9506 106.112 60.2557C103.039 55.3381 99.5556 49.7651 92.5168 49.7651C85.4817 49.7651 81.9985 55.3375 78.9273 60.2545C75.9934 64.95 73.4586 69.0053 68.4724 69.0053C63.4825 69.0053 60.946 64.9506 58.0102 60.2545L58.0098 60.2545Z" fill="#3FC5FF" fill-opacity="0.3"/>
<path d="M58.0098 28.9895C54.9367 24.0723 51.4518 18.5001 44.4113 18.5001C37.3708 18.5001 33.8858 24.0725 30.8127 28.9895C27.8769 33.6849 25.3404 37.7397 20.3505 37.7397C19.3279 37.7397 18.5005 38.5677 18.5005 39.5897C18.5005 40.6116 19.3279 41.4397 20.3505 41.4397C27.391 41.4397 30.8759 35.8673 33.9491 30.9503C36.8849 26.2549 39.4214 22.2001 44.4113 22.2001C49.4012 22.2001 51.9377 26.2549 54.8735 30.951C57.9466 35.8675 61.4316 41.4403 68.4721 41.4403C75.509 41.4403 78.9921 35.8669 82.0634 30.9497C84.9973 26.2549 87.5322 22.2002 92.5167 22.2002C97.5047 22.2002 100.04 26.2549 102.975 30.9516C106.048 35.8675 109.532 41.4403 116.569 41.4403C123.605 41.4403 127.089 35.8669 130.16 30.9497C133.094 26.2549 135.629 22.2002 140.613 22.2002C145.596 22.2002 148.129 26.2549 151.061 30.9497C154.134 35.8663 157.616 41.4397 164.65 41.4397C165.673 41.4397 166.5 40.6116 166.5 39.5897C166.5 38.5677 165.673 37.7397 164.65 37.7397C159.666 37.7397 157.133 33.685 154.199 28.9889C151.128 24.0724 147.648 18.5002 140.613 18.5002C133.578 18.5002 130.095 24.0725 127.024 28.9895C124.09 33.685 121.555 37.7403 116.569 37.7403C111.582 37.7403 109.048 33.6856 106.112 28.9907C103.039 24.0725 99.5556 18.5001 92.5168 18.5001C85.4817 18.5001 81.9985 24.0725 78.9273 28.9895C75.9934 33.6849 73.4586 37.7403 68.4724 37.7403C63.4825 37.7397 60.946 33.6849 58.0102 28.9895L58.0098 28.9895Z" fill="#3FC5FF" fill-opacity="0.3"/>
</svg>
