<svg width="349" height="484" viewBox="0 0 349 484" fill="none" xmlns="http://www.w3.org/2000/svg">
<path d="M0 73.6358C0 33.0776 0 12.7985 13.3123 3.88761C26.6246 -5.02329 45.3728 2.70619 82.8693 18.1652L321.771 116.659C334.967 122.099 341.564 124.819 345.282 130.373C349 135.928 349 143.064 349 157.337V440C349 460.742 349 471.113 342.556 477.556C336.113 484 325.742 484 305 484H44C23.2582 484 12.8873 484 6.44365 477.556C0 471.113 0 460.742 0 440V73.6358Z" fill="url(#paint0_linear_2_430)"/>
<defs>
<linearGradient id="paint0_linear_2_430" x1="349" y1="311.338" x2="-7.0933" y2="309.67" gradientUnits="userSpaceOnUse">
<stop stop-color="#362A84"/>
<stop offset="0.927168" stop-color="#5936B4"/>
</linearGradient>
</defs>
</svg>
